<svg width="59" height="59" viewBox="0 0 59 59" fill="none" xmlns="http://www.w3.org/2000/svg">
<path fill-rule="evenodd" clip-rule="evenodd" d="M29.5003 0.5L4.125 15.0001V43.9999L29.5003 58.5L54.875 43.9999V15.0001L29.5003 0.5Z" fill="#00A88E"/>
<path fill-rule="evenodd" clip-rule="evenodd" d="M16.8125 43.0938H34.9375V37.6562H16.8125V43.0938Z" fill="#4D4D4F"/>
<path fill-rule="evenodd" clip-rule="evenodd" d="M41.2812 41.3055C41.2812 42.2891 40.2614 43.0938 39.0151 43.0938C37.7693 43.0938 36.75 42.2891 36.75 41.3055V39.4445C36.75 38.4609 37.7693 37.6562 39.0151 37.6562C40.2614 37.6562 41.2812 38.4609 41.2812 39.4445V41.3055Z" fill="#4D4D4F"/>
<path fill-rule="evenodd" clip-rule="evenodd" d="M36.75 41.2812V42.1875C36.75 43.3045 37.7693 44 39.0151 44C40.2614 44 41.2812 43.3045 41.2812 42.1875V41.2812C41.2812 42.3983 40.2614 43.0938 39.0151 43.0938C37.7693 43.0938 36.75 42.3983 36.75 41.2812Z" fill="#6D6E71"/>
<path fill-rule="evenodd" clip-rule="evenodd" d="M16.8125 44H34.9375V43.0938H16.8125V44Z" fill="#6D6E71"/>
<path fill-rule="evenodd" clip-rule="evenodd" d="M16.8125 16.8125H42.1875V15H16.8125V16.8125Z" fill="#4D4D4F"/>
<path fill-rule="evenodd" clip-rule="evenodd" d="M34.0312 34.9375C34.0312 33.9364 32.0027 33.125 29.5 33.125C26.9973 33.125 24.9688 33.9364 24.9688 34.9375C24.9688 35.9386 26.9973 36.75 29.5 36.75C32.0027 36.75 34.0312 35.9386 34.0312 34.9375Z" fill="#4D4D4F"/>
<path fill-rule="evenodd" clip-rule="evenodd" d="M16.8125 34.9375H42.1875V16.8125H16.8125V34.9375Z" fill="#6D6E71"/>
<path fill-rule="evenodd" clip-rule="evenodd" d="M18.625 33.125H40.375V18.625H18.625V33.125Z" fill="#01A59C"/>
<path fill-rule="evenodd" clip-rule="evenodd" d="M29.0469 20.4375L24.9688 22.7788V27.1035C24.9688 29.9528 29.0469 31.3125 29.0469 31.3125C29.0469 31.3125 33.125 29.9528 33.125 27.1035V22.7788L29.0469 20.4375ZM29.0464 21.7868L31.9384 23.4474V27.1035C31.9384 28.6396 29.91 29.682 29.0464 30.0558C28.1811 29.6815 26.1543 28.6391 26.1543 27.1035V23.4474L29.0464 21.7868Z" fill="#FFFFFE"/>
</svg>
